<?xml version="1.0" encoding="UTF-8" standalone="no"?>
<svg
        width="13"
        height="13"
        viewBox="0 0 3.4395829 3.4395829"
        version="1.1"
        id="svg5"
        xmlns="http://www.w3.org/2000/svg"
        xmlns:svg="http://www.w3.org/2000/svg">

  <defs
          id="defs2" />
  <g
          id="g951"
          transform="matrix(0.32589186,0,0,0.32589186,-0.00471925,-0.00471921)">
    <path
            style="fill:#00a6d6;fill-opacity:1;stroke:none;stroke-width:0.100315;stroke-linecap:round;stroke-linejoin:round;stroke-miterlimit:4;stroke-dasharray:none"
            d="m 5.2916654,0.42328566 c 0,0 -1.2865317,0.2861047 -2.4934075,1.19522814 0,0 -1.1218678,1.9302172 -1.1372608,5.0736275 0,0 0.873258,1.7559965 3.1971972,3.4679037 L 4.9732098,5.5818753 c 0,0 -1.6108097,-0.023255 -2.2185901,-0.7672226 l 0.039823,-0.7254588 c 0,0 0.3247364,-0.4553507 2.4972228,-0.4553507"
            id="path9276"
           />
    <path
            style="fill:#00a6d6;fill-opacity:1;stroke:none;stroke-width:0.100315;stroke-linecap:round;stroke-linejoin:round;stroke-miterlimit:4;stroke-dasharray:none"
            d="m 5.2916654,0.42328566 c 0,0 1.2865317,0.2861047 2.4934076,1.19522814 0,0 1.1218678,1.9302172 1.1372608,5.0736275 0,0 -0.873258,1.7559965 -3.1971973,3.4679037 L 5.6101211,5.5818753 c 0,0 1.6108096,-0.023255 2.21859,-0.7672226 L 7.7888882,4.0891939 c 0,0 -0.3247364,-0.4553507 -2.4972228,-0.4553507"
            id="path9278"
            />
    <path
            style="fill:#00a6d6;fill-opacity:1;stroke:#00a6d6;stroke-width:0.0767217;stroke-linecap:round;stroke-linejoin:round;stroke-miterlimit:4;stroke-dasharray:none;stroke-opacity:1"
            d="M 5.2916638,0.46380529 V 3.5937698"
            id="path9715" />
  </g>
</svg>